<svg xmlns="http://www.w3.org/2000/svg" viewBox="0 0 100 100">
  <!-- Background -->
  <circle cx="50" cy="50" r="50" fill="#1a237e"/>
  <!-- Armor body -->
  <path d="M30 95 Q30 65 50 60 Q70 65 70 95" fill="#5c6bc0"/>
  <!-- Chain mail texture -->
  <path d="M35 80 Q50 75 65 80" stroke="#7986cb" stroke-width="1" fill="none"/>
  <path d="M33 85 Q50 80 67 85" stroke="#7986cb" stroke-width="1" fill="none"/>
  <path d="M31 90 Q50 85 69 90" stroke="#7986cb" stroke-width="1" fill="none"/>
  <!-- Face -->
  <circle cx="50" cy="38" r="16" fill="#e8b89d"/>
  <!-- Eyes -->
  <ellipse cx="44" cy="36" rx="2.5" ry="2" fill="#1a237e"/>
  <ellipse cx="56" cy="36" rx="2.5" ry="2" fill="#1a237e"/>
  <!-- Nose -->
  <path d="M50 38 L48 43 L52 43" fill="#d4a07a" stroke="#d4a07a" stroke-width="0.5"/>
  <!-- Mouth -->
  <path d="M45 47 Q50 49 55 47" stroke="#8d6e63" stroke-width="1.2" fill="none"/>
  <!-- Beard -->
  <path d="M38 45 Q38 58 50 62 Q62 58 62 45" fill="#8d6e63" opacity="0.8"/>
  <path d="M40 46 Q40 55 50 58 Q60 55 60 46" fill="#a1887f" opacity="0.6"/>
  <!-- Crown -->
  <path d="M32 28 L35 18 L40 25 L45 14 L50 24 L55 14 L60 25 L65 18 L68 28 Z" fill="#ffd54f"/>
  <path d="M32 28 L68 28 L66 32 L34 32 Z" fill="#ffb300"/>
  <!-- Crown jewels -->
  <circle cx="45" cy="20" r="2" fill="#e53935"/>
  <circle cx="55" cy="20" r="2" fill="#1e88e5"/>
  <circle cx="50" cy="27" r="2" fill="#43a047"/>
  <!-- Sword handle peeking from shoulder -->
  <rect x="22" y="55" width="3" height="20" rx="1" fill="#9e9e9e" transform="rotate(-15 23 65)"/>
  <rect x="18" y="54" width="11" height="3" rx="1" fill="#ffd54f" transform="rotate(-15 23 55)"/>
</svg>
