<svg xmlns="http://www.w3.org/2000/svg" viewBox="0 0 100 100">
  <!-- Background -->
  <circle cx="50" cy="50" r="50" fill="#1b5e20"/>
  <!-- Snake hair -->
  <g stroke="#4caf50" stroke-width="3" fill="none" stroke-linecap="round">
    <path d="M30 35 Q20 15 15 10"/>
    <path d="M35 30 Q28 10 30 5"/>
    <path d="M42 27 Q38 8 42 2"/>
    <path d="M50 25 Q50 5 52 0"/>
    <path d="M58 27 Q62 8 58 2"/>
    <path d="M65 30 Q72 10 70 5"/>
    <path d="M70 35 Q80 15 85 10"/>
  </g>
  <!-- Snake heads (small dots at tips) -->
  <g fill="#66bb6a">
    <circle cx="15" cy="10" r="3"/>
    <circle cx="30" cy="5" r="3"/>
    <circle cx="42" cy="2" r="3"/>
    <circle cx="52" cy="0" r="3"/>
    <circle cx="58" cy="2" r="3"/>
    <circle cx="70" cy="5" r="3"/>
    <circle cx="85" cy="10" r="3"/>
  </g>
  <!-- Snake eyes (tiny red dots) -->
  <g fill="#f44336">
    <circle cx="14" cy="9" r="1"/><circle cx="17" cy="9" r="1"/>
    <circle cx="29" cy="4" r="1"/><circle cx="32" cy="4" r="1"/>
    <circle cx="41" cy="1" r="1"/><circle cx="44" cy="1" r="1"/>
    <circle cx="51" cy="-1" r="1"/><circle cx="54" cy="-1" r="1"/>
    <circle cx="57" cy="1" r="1"/><circle cx="60" cy="1" r="1"/>
    <circle cx="69" cy="4" r="1"/><circle cx="72" cy="4" r="1"/>
    <circle cx="84" cy="9" r="1"/><circle cx="87" cy="9" r="1"/>
  </g>
  <!-- Additional wavy snakes on sides -->
  <g stroke="#388e3c" stroke-width="2.5" fill="none" stroke-linecap="round">
    <path d="M25 40 Q10 35 8 25"/>
    <path d="M75 40 Q90 35 92 25"/>
    <path d="M22 48 Q8 50 5 40"/>
    <path d="M78 48 Q92 50 95 40"/>
  </g>
  <!-- Face -->
  <ellipse cx="50" cy="45" rx="18" ry="20" fill="#a5d6a7"/>
  <!-- Eyes - glowing -->
  <ellipse cx="43" cy="42" rx="4" ry="3" fill="#fff59d"/>
  <ellipse cx="57" cy="42" rx="4" ry="3" fill="#fff59d"/>
  <ellipse cx="43" cy="42" rx="2" ry="2.5" fill="#f44336"/>
  <ellipse cx="57" cy="42" rx="2" ry="2.5" fill="#f44336"/>
  <!-- Eyebrows -->
  <path d="M37 37 Q43 34 48 37" stroke="#2e7d32" stroke-width="1.5" fill="none"/>
  <path d="M52 37 Q57 34 63 37" stroke="#2e7d32" stroke-width="1.5" fill="none"/>
  <!-- Nose -->
  <path d="M50 44 L48 50 L52 50" fill="#81c784" stroke="#81c784" stroke-width="0.5"/>
  <!-- Mouth -->
  <path d="M43 55 Q47 58 50 57 Q53 58 57 55" stroke="#2e7d32" stroke-width="1.5" fill="none"/>
  <!-- Fangs -->
  <path d="M45 56 L44 59" stroke="#fff" stroke-width="1.5" stroke-linecap="round"/>
  <path d="M55 56 L56 59" stroke="#fff" stroke-width="1.5" stroke-linecap="round"/>
  <!-- Body/robes -->
  <path d="M30 95 Q30 72 50 68 Q70 72 70 95" fill="#2e7d32"/>
  <!-- Scale pattern on body -->
  <g fill="#388e3c" opacity="0.6">
    <path d="M40 78 Q50 75 60 78 Q50 81 40 78"/>
    <path d="M37 84 Q50 81 63 84 Q50 87 37 84"/>
    <path d="M35 90 Q50 87 65 90 Q50 93 35 90"/>
  </g>
</svg>
